# xmcd
#
# Track frame offsets:
#	150
#	23203
#	46925
#	69671
#	90332
#	106325
#	126600
#	144801
#	166974
#	187038
#	204994
#	240040
#
# Disc length: 3605 seconds
# Revision: 0
# Processed by: cddbd v1.5.2PL0 Copyright (c) Steve Scherf et al.
# Submitted via: dBpowerAMP V12.0
#
DISCID=980e130c
DTITLE=Loose Ends - Zagora
DYEAR=1986
DGENRE=Rap/R and B
TTITLE0=Stay a Little While, Child
TTITLE1=Be Thankful (Mama's Song)
TTITLE2=Slow Down
TTITLE3=Ooh, You Make Me Feel
TTITLE4=Just A Minute
TTITLE5=Gonna Make You Mine
TTITLE6=Who Are You?
TTITLE7=I Can't Wait
TTITLE8=Nights of Pleasure
TTITLE9=Let's Get Back To Love
TTITLE10=Stay a Little While, Child (Dub Mix)
TTITLE11=Rainbow/Take the a Rain
EXTD=
EXTT0=
EXTT1=
EXTT2=
EXTT3=
EXTT4=
EXTT5=
EXTT6=
EXTT7=
EXTT8=
EXTT9=
EXTT10=
EXTT11=
PLAYORDER=
